<mxfile host="65bd71144e">
    <diagram id="cCFo1XHl2fRcy7lcEVun" name="Page-1">
        <mxGraphModel dx="1693" dy="1085" grid="1" gridSize="10" guides="1" tooltips="1" connect="1" arrows="1" fold="1" page="1" pageScale="1" pageWidth="1169" pageHeight="827" background="none" math="0" shadow="0">
            <root>
                <mxCell id="0"/>
                <mxCell id="1" parent="0"/>
                <mxCell id="2" value="&lt;font style=&quot;font-size: 18px;&quot;&gt;&lt;u style=&quot;&quot;&gt;user&lt;/u&gt;&lt;/font&gt;&lt;br&gt;&lt;br&gt;- id (big int) pk&lt;br&gt;- first_name (varchar 255)&lt;br&gt;- last_name (varchar 255)&lt;br&gt;- email (varchar 255) (unique)&lt;br&gt;- roles json&lt;br&gt;- password (varchar 255)&lt;br&gt;- is_verified (boolean) default false&lt;br&gt;- created_at (?datetime)&lt;br&gt;- verified_at (?datetime)&lt;br&gt;- updated_at (?datetime)" style="whiteSpace=wrap;html=1;aspect=fixed;" vertex="1" parent="1">
                    <mxGeometry x="10" y="310" width="190" height="190" as="geometry"/>
                </mxCell>
                <mxCell id="3" value="&lt;font style=&quot;font-size: 14px;&quot;&gt;&lt;u style=&quot;&quot;&gt;reset_password_request&lt;/u&gt;&lt;/font&gt;&lt;br&gt;&lt;br&gt;- id (big int) pk&lt;br&gt;- user_id (big int) fk&lt;br&gt;- selector (varchar 20)&lt;br&gt;- hashed_token (varchar 100)&lt;br&gt;- request_at (?datetime)&lt;br&gt;- expires_at (?datetime)" style="whiteSpace=wrap;html=1;aspect=fixed;" vertex="1" parent="1">
                    <mxGeometry x="30" y="40" width="190" height="190" as="geometry"/>
                </mxCell>
                <mxCell id="4" value="" style="endArrow=none;html=1;fontSize=18;exitX=0.5;exitY=0;exitDx=0;exitDy=0;entryX=0.5;entryY=1;entryDx=0;entryDy=0;" edge="1" parent="1" source="2" target="3">
                    <mxGeometry width="50" height="50" relative="1" as="geometry">
                        <mxPoint x="330" y="470" as="sourcePoint"/>
                        <mxPoint x="380" y="420" as="targetPoint"/>
                    </mxGeometry>
                </mxCell>
                <mxCell id="5" value="0, n" style="edgeLabel;html=1;align=center;verticalAlign=middle;resizable=0;points=[];fontSize=18;" vertex="1" connectable="0" parent="4">
                    <mxGeometry x="-0.7224" y="1" relative="1" as="geometry">
                        <mxPoint y="-5" as="offset"/>
                    </mxGeometry>
                </mxCell>
                <mxCell id="6" value="1, 1" style="edgeLabel;html=1;align=center;verticalAlign=middle;resizable=0;points=[];fontSize=18;" vertex="1" connectable="0" parent="4">
                    <mxGeometry x="0.7924" y="-1" relative="1" as="geometry">
                        <mxPoint y="5" as="offset"/>
                    </mxGeometry>
                </mxCell>
                <mxCell id="7" value="&lt;font style=&quot;font-size: 14px;&quot;&gt;&lt;u style=&quot;&quot;&gt;category&lt;/u&gt;&lt;/font&gt;&lt;br&gt;&lt;br&gt;- id (big int) pk&lt;br&gt;- name (varchar 255) (unique)&lt;br&gt;- slug (varchar 255) (unique)&lt;br&gt;- created_at (?datetime)&lt;br&gt;- updated_at (?datetime)" style="whiteSpace=wrap;html=1;aspect=fixed;" vertex="1" parent="1">
                    <mxGeometry x="270" y="90" width="190" height="190" as="geometry"/>
                </mxCell>
                <mxCell id="8" value="&lt;font style=&quot;font-size: 14px;&quot;&gt;&lt;u style=&quot;&quot;&gt;post&lt;/u&gt;&lt;/font&gt;&lt;br&gt;&lt;br&gt;- id (big int) pk&lt;br&gt;&lt;div style=&quot;&quot;&gt;&lt;span style=&quot;background-color: initial;&quot;&gt;- category_id (big int) fk&lt;/span&gt;&lt;/div&gt;&lt;div style=&quot;&quot;&gt;&lt;span style=&quot;background-color: initial;&quot;&gt;- user_id (big int) fk&lt;/span&gt;&lt;/div&gt;&lt;div style=&quot;&quot;&gt;&lt;span style=&quot;background-color: initial;&quot;&gt;- title (varchar 255)&lt;/span&gt;&lt;/div&gt;- description (varchar 255)&lt;br&gt;- keywords (json)&lt;br&gt;- slug (varchar 255) (unique)&lt;br&gt;- content (longtext)&lt;br&gt;- image (varchar 255) (unique)&lt;br&gt;- is_published (boolean) default false&lt;br&gt;- created_at (?datetime)&lt;br&gt;- published_at (?datetime)&lt;br&gt;- updated_at (?datetime)" style="whiteSpace=wrap;html=1;aspect=fixed;" vertex="1" parent="1">
                    <mxGeometry x="520" y="290" width="230" height="230" as="geometry"/>
                </mxCell>
                <mxCell id="9" value="" style="endArrow=none;html=1;entryX=0;entryY=0.217;entryDx=0;entryDy=0;exitX=1.023;exitY=0.778;exitDx=0;exitDy=0;entryPerimeter=0;exitPerimeter=0;" edge="1" parent="1" source="7" target="8">
                    <mxGeometry width="50" height="50" relative="1" as="geometry">
                        <mxPoint x="560" y="340" as="sourcePoint"/>
                        <mxPoint x="610" y="290" as="targetPoint"/>
                    </mxGeometry>
                </mxCell>
                <mxCell id="14" value="&lt;font style=&quot;font-size: 18px;&quot;&gt;0, n&lt;/font&gt;" style="edgeLabel;html=1;align=center;verticalAlign=middle;resizable=0;points=[];" vertex="1" connectable="0" parent="9">
                    <mxGeometry x="-0.541" y="1" relative="1" as="geometry">
                        <mxPoint as="offset"/>
                    </mxGeometry>
                </mxCell>
                <mxCell id="15" value="1, 1" style="edgeLabel;html=1;align=center;verticalAlign=middle;resizable=0;points=[];fontSize=18;" vertex="1" connectable="0" parent="9">
                    <mxGeometry x="0.761" y="1" relative="1" as="geometry">
                        <mxPoint x="-12" as="offset"/>
                    </mxGeometry>
                </mxCell>
                <mxCell id="12" value="" style="endArrow=none;html=1;exitX=1;exitY=0.5;exitDx=0;exitDy=0;entryX=0;entryY=0.5;entryDx=0;entryDy=0;" edge="1" parent="1" source="2" target="8">
                    <mxGeometry width="50" height="50" relative="1" as="geometry">
                        <mxPoint x="480" y="380" as="sourcePoint"/>
                        <mxPoint x="530" y="330" as="targetPoint"/>
                    </mxGeometry>
                </mxCell>
                <mxCell id="16" value="0, n" style="edgeLabel;html=1;align=center;verticalAlign=middle;resizable=0;points=[];fontSize=18;" vertex="1" connectable="0" parent="12">
                    <mxGeometry x="-0.8896" y="-1" relative="1" as="geometry">
                        <mxPoint as="offset"/>
                    </mxGeometry>
                </mxCell>
                <mxCell id="17" value="1, 1" style="edgeLabel;html=1;align=center;verticalAlign=middle;resizable=0;points=[];fontSize=18;" vertex="1" connectable="0" parent="12">
                    <mxGeometry x="0.8586" y="-2" relative="1" as="geometry">
                        <mxPoint as="offset"/>
                    </mxGeometry>
                </mxCell>
                <mxCell id="18" value="&lt;font style=&quot;font-size: 14px;&quot;&gt;&lt;u style=&quot;&quot;&gt;comment&lt;/u&gt;&lt;/font&gt;&lt;br&gt;&lt;br&gt;- id (big int) pk&lt;br&gt;- user_id (big int) fk&lt;br&gt;- post_id (big int) fk&lt;br&gt;- content (text 1000)&lt;br&gt;- created_at (?datetime)&lt;br&gt;- updated_at (?datetime)" style="whiteSpace=wrap;html=1;aspect=fixed;" vertex="1" parent="1">
                    <mxGeometry x="270" y="530" width="190" height="190" as="geometry"/>
                </mxCell>
                <mxCell id="19" value="" style="endArrow=none;html=1;fontSize=18;exitX=1.007;exitY=0.816;exitDx=0;exitDy=0;entryX=-0.003;entryY=0.339;entryDx=0;entryDy=0;entryPerimeter=0;exitPerimeter=0;" edge="1" parent="1" source="2" target="18">
                    <mxGeometry width="50" height="50" relative="1" as="geometry">
                        <mxPoint x="560" y="450" as="sourcePoint"/>
                        <mxPoint x="610" y="400" as="targetPoint"/>
                    </mxGeometry>
                </mxCell>
                <mxCell id="20" value="0, n" style="edgeLabel;html=1;align=center;verticalAlign=middle;resizable=0;points=[];fontSize=18;" vertex="1" connectable="0" parent="19">
                    <mxGeometry x="-0.757" y="1" relative="1" as="geometry">
                        <mxPoint x="13" y="5" as="offset"/>
                    </mxGeometry>
                </mxCell>
                <mxCell id="21" value="1, 1" style="edgeLabel;html=1;align=center;verticalAlign=middle;resizable=0;points=[];fontSize=18;" vertex="1" connectable="0" parent="19">
                    <mxGeometry x="0.672" y="-1" relative="1" as="geometry">
                        <mxPoint as="offset"/>
                    </mxGeometry>
                </mxCell>
                <mxCell id="24" value="" style="endArrow=none;html=1;fontSize=18;entryX=0.002;entryY=0.791;entryDx=0;entryDy=0;exitX=1.016;exitY=0.159;exitDx=0;exitDy=0;exitPerimeter=0;entryPerimeter=0;" edge="1" parent="1" source="18" target="8">
                    <mxGeometry width="50" height="50" relative="1" as="geometry">
                        <mxPoint x="560" y="440" as="sourcePoint"/>
                        <mxPoint x="610" y="390" as="targetPoint"/>
                    </mxGeometry>
                </mxCell>
                <mxCell id="25" value="1, 1" style="edgeLabel;html=1;align=center;verticalAlign=middle;resizable=0;points=[];fontSize=18;" vertex="1" connectable="0" parent="24">
                    <mxGeometry x="-0.7454" relative="1" as="geometry">
                        <mxPoint x="8" y="-6" as="offset"/>
                    </mxGeometry>
                </mxCell>
                <mxCell id="26" value="0, n" style="edgeLabel;html=1;align=center;verticalAlign=middle;resizable=0;points=[];fontSize=18;" vertex="1" connectable="0" parent="24">
                    <mxGeometry x="0.5891" y="-1" relative="1" as="geometry">
                        <mxPoint x="-7" y="-5" as="offset"/>
                    </mxGeometry>
                </mxCell>
                <mxCell id="27" value="&lt;font style=&quot;font-size: 14px;&quot;&gt;&lt;u style=&quot;&quot;&gt;tag&lt;/u&gt;&lt;/font&gt;&lt;br&gt;&lt;br&gt;- id (big int) pk&lt;br&gt;- name (varchar 255) (unique)&lt;br&gt;- slug (varchar 255) (unique)&lt;br&gt;- created_at (?datetime)&lt;br&gt;- updated_at (?datetime)" style="whiteSpace=wrap;html=1;aspect=fixed;" vertex="1" parent="1">
                    <mxGeometry x="980" y="320" width="170" height="170" as="geometry"/>
                </mxCell>
                <mxCell id="31" value="&lt;font style=&quot;font-size: 14px;&quot;&gt;&lt;u style=&quot;&quot;&gt;post_tag&lt;/u&gt;&lt;/font&gt;&lt;br&gt;&lt;br&gt;- post_id fk pk&lt;br&gt;- tag_id fk pk" style="whiteSpace=wrap;html=1;aspect=fixed;" vertex="1" parent="1">
                    <mxGeometry x="830" y="350" width="80" height="80" as="geometry"/>
                </mxCell>
                <mxCell id="32" value="" style="endArrow=none;html=1;fontSize=18;entryX=0;entryY=0.5;entryDx=0;entryDy=0;exitX=1;exitY=0.5;exitDx=0;exitDy=0;" edge="1" parent="1" source="31" target="27">
                    <mxGeometry width="50" height="50" relative="1" as="geometry">
                        <mxPoint x="580" y="430" as="sourcePoint"/>
                        <mxPoint x="630" y="380" as="targetPoint"/>
                    </mxGeometry>
                </mxCell>
                <mxCell id="35" value="0, n" style="edgeLabel;html=1;align=center;verticalAlign=middle;resizable=0;points=[];fontSize=18;" vertex="1" connectable="0" parent="32">
                    <mxGeometry x="0.2177" y="-1" relative="1" as="geometry">
                        <mxPoint x="7" y="-1" as="offset"/>
                    </mxGeometry>
                </mxCell>
                <mxCell id="33" value="" style="endArrow=none;html=1;fontSize=18;entryX=0;entryY=0.5;entryDx=0;entryDy=0;exitX=1;exitY=0.5;exitDx=0;exitDy=0;" edge="1" parent="1" source="8" target="31">
                    <mxGeometry width="50" height="50" relative="1" as="geometry">
                        <mxPoint x="780" y="410" as="sourcePoint"/>
                        <mxPoint x="630" y="380" as="targetPoint"/>
                    </mxGeometry>
                </mxCell>
                <mxCell id="34" value="0, n" style="edgeLabel;html=1;align=center;verticalAlign=middle;resizable=0;points=[];fontSize=18;" vertex="1" connectable="0" parent="33">
                    <mxGeometry x="-0.6586" y="1" relative="1" as="geometry">
                        <mxPoint x="6" y="1" as="offset"/>
                    </mxGeometry>
                </mxCell>
                <mxCell id="36" value="&lt;font style=&quot;font-size: 14px;&quot;&gt;&lt;u style=&quot;&quot;&gt;contact&lt;/u&gt;&lt;/font&gt;&lt;br&gt;&lt;br&gt;- id (big int) pk&lt;br&gt;- fist_name (varchar 255)&lt;br&gt;- last_name (varchar 255)&lt;br&gt;- email (varchar 255)&lt;br&gt;- phone (?varchar 255)&lt;br&gt;- message (text)&lt;br&gt;- created_at (?datetime)" style="whiteSpace=wrap;html=1;aspect=fixed;" vertex="1" parent="1">
                    <mxGeometry x="785" y="560" width="170" height="170" as="geometry"/>
                </mxCell>
                <mxCell id="37" value="&lt;font style=&quot;font-size: 14px;&quot;&gt;&lt;u style=&quot;&quot;&gt;setting&lt;/u&gt;&lt;/font&gt;&lt;br&gt;&lt;br&gt;- id (big int) pk&lt;br&gt;- email (varchar 255)&lt;br&gt;- phone (varchar 255)&lt;br&gt;- created_at (?datetime)&lt;br&gt;- updated_at (?datetime)" style="whiteSpace=wrap;html=1;aspect=fixed;" vertex="1" parent="1">
                    <mxGeometry x="785" y="100" width="170" height="170" as="geometry"/>
                </mxCell>
                <mxCell id="38" value="&lt;font style=&quot;font-size: 14px;&quot;&gt;&lt;u style=&quot;&quot;&gt;like&lt;/u&gt;&lt;/font&gt;&lt;br&gt;&lt;br&gt;- id (big int) pk&lt;br&gt;- user_id (big int) fk&lt;br&gt;- post_id (big int) fk&lt;br&gt;- created_at (?datetime)&lt;br&gt;- updated_at (?datetime)" style="whiteSpace=wrap;html=1;aspect=fixed;" vertex="1" parent="1">
                    <mxGeometry x="280" y="770" width="170" height="170" as="geometry"/>
                </mxCell>
                <mxCell id="39" value="" style="endArrow=none;html=1;fontSize=18;entryX=0.5;entryY=1;entryDx=0;entryDy=0;exitX=-0.012;exitY=0.429;exitDx=0;exitDy=0;exitPerimeter=0;" edge="1" parent="1" source="38" target="2">
                    <mxGeometry width="50" height="50" relative="1" as="geometry">
                        <mxPoint x="100" y="570" as="sourcePoint"/>
                        <mxPoint x="150" y="520" as="targetPoint"/>
                    </mxGeometry>
                </mxCell>
                <mxCell id="40" value="0, n" style="edgeLabel;html=1;align=center;verticalAlign=middle;resizable=0;points=[];fontSize=18;" vertex="1" connectable="0" parent="39">
                    <mxGeometry x="0.651" y="-1" relative="1" as="geometry">
                        <mxPoint as="offset"/>
                    </mxGeometry>
                </mxCell>
                <mxCell id="41" value="1, 1" style="edgeLabel;html=1;align=center;verticalAlign=middle;resizable=0;points=[];fontSize=18;" vertex="1" connectable="0" parent="39">
                    <mxGeometry x="-0.6549" y="1" relative="1" as="geometry">
                        <mxPoint x="13" y="28" as="offset"/>
                    </mxGeometry>
                </mxCell>
                <mxCell id="42" value="" style="endArrow=none;html=1;fontSize=18;exitX=1;exitY=0.5;exitDx=0;exitDy=0;entryX=0.5;entryY=1;entryDx=0;entryDy=0;" edge="1" parent="1" source="38" target="8">
                    <mxGeometry width="50" height="50" relative="1" as="geometry">
                        <mxPoint x="660" y="880" as="sourcePoint"/>
                        <mxPoint x="710" y="830" as="targetPoint"/>
                    </mxGeometry>
                </mxCell>
                <mxCell id="43" value="1, 1" style="edgeLabel;html=1;align=center;verticalAlign=middle;resizable=0;points=[];fontSize=18;" vertex="1" connectable="0" parent="42">
                    <mxGeometry x="-0.7824" relative="1" as="geometry">
                        <mxPoint y="-8" as="offset"/>
                    </mxGeometry>
                </mxCell>
                <mxCell id="44" value="0, n" style="edgeLabel;html=1;align=center;verticalAlign=middle;resizable=0;points=[];fontSize=18;" vertex="1" connectable="0" parent="42">
                    <mxGeometry x="0.9001" y="-1" relative="1" as="geometry">
                        <mxPoint as="offset"/>
                    </mxGeometry>
                </mxCell>
            </root>
        </mxGraphModel>
    </diagram>
</mxfile>